<svg width="259" height="225" viewBox="0 0 259 225" fill="none" xmlns="http://www.w3.org/2000/svg">
<path d="M66.4335 45.5625C53.613 56.7 52.8359 78.6375 53.4834 97.5375C54.131 116.438 56.3324 132.3 62.1599 151.088C67.9874 169.875 77.6999 191.587 95.1824 199.462C112.794 207.225 138.435 201.037 161.227 192.15C184.019 183.262 204.092 171.562 209.919 156.038C215.876 140.513 207.718 121.162 199.948 104.963C192.178 88.65 185.055 75.6 173.4 64.35C161.616 53.1 145.558 43.7625 124.967 39.15C104.377 34.5375 79.3835 34.5375 66.4335 45.5625Z" fill="white"/>
<g clip-path="url(#clip0_28_497)">
<path opacity="0.1" d="M108.36 109.87H93.6378C93.1164 109.87 92.6937 110.316 92.6937 110.867V114.177C92.6937 114.727 93.1164 115.174 93.6378 115.174H108.36C108.881 115.174 109.304 114.727 109.304 114.177V110.867C109.304 110.316 108.881 109.87 108.36 109.87Z" fill="white"/>
<path opacity="0.1" d="M125.743 115.175H111.02C110.499 115.175 110.076 115.622 110.076 116.172V119.482C110.076 120.033 110.499 120.479 111.02 120.479H125.743C126.264 120.479 126.687 120.033 126.687 119.482V116.172C126.687 115.622 126.264 115.175 125.743 115.175Z" fill="white"/>
<path opacity="0.1" d="M143.126 120.479H128.404C127.883 120.479 127.46 120.926 127.46 121.476V124.786C127.46 125.337 127.883 125.783 128.404 125.783H143.126C143.648 125.783 144.07 125.337 144.07 124.786V121.476C144.07 120.926 143.648 120.479 143.126 120.479Z" fill="white"/>
<path opacity="0.1" d="M108.36 101.914H93.6378C93.1164 101.914 92.6937 102.36 92.6937 102.911V106.221C92.6937 106.771 93.1164 107.218 93.6378 107.218H108.36C108.881 107.218 109.304 106.771 109.304 106.221V102.911C109.304 102.36 108.881 101.914 108.36 101.914Z" fill="white"/>
<path opacity="0.1" d="M125.743 107.218H111.02C110.499 107.218 110.076 107.664 110.076 108.215V111.525C110.076 112.075 110.499 112.522 111.02 112.522H125.743C126.264 112.522 126.687 112.075 126.687 111.525V108.215C126.687 107.664 126.264 107.218 125.743 107.218Z" fill="white"/>
<path opacity="0.1" d="M143.126 112.523H128.404C127.883 112.523 127.46 112.97 127.46 113.52V116.83C127.46 117.381 127.883 117.827 128.404 117.827H143.126C143.648 117.827 144.07 117.381 144.07 116.83V113.52C144.07 112.97 143.648 112.523 143.126 112.523Z" fill="white"/>
<path opacity="0.1" d="M162.44 109.87H147.718C147.197 109.87 146.774 110.316 146.774 110.867V114.177C146.774 114.727 147.197 115.174 147.718 115.174H162.44C162.962 115.174 163.384 114.727 163.384 114.177V110.867C163.384 110.316 162.962 109.87 162.44 109.87Z" fill="white"/>
<path opacity="0.1" d="M179.823 115.175H165.101C164.58 115.175 164.157 115.622 164.157 116.172V119.482C164.157 120.033 164.58 120.479 165.101 120.479H179.823C180.344 120.479 180.767 120.033 180.767 119.482V116.172C180.767 115.622 180.344 115.175 179.823 115.175Z" fill="white"/>
<path opacity="0.1" d="M197.207 120.479H182.485C181.963 120.479 181.541 120.926 181.541 121.476V124.786C181.541 125.337 181.963 125.783 182.485 125.783H197.207C197.728 125.783 198.151 125.337 198.151 124.786V121.476C198.151 120.926 197.728 120.479 197.207 120.479Z" fill="white"/>
<path opacity="0.1" d="M162.44 101.914H147.718C147.197 101.914 146.774 102.36 146.774 102.911V106.221C146.774 106.771 147.197 107.218 147.718 107.218H162.44C162.962 107.218 163.384 106.771 163.384 106.221V102.911C163.384 102.36 162.962 101.914 162.44 101.914Z" fill="white"/>
<path opacity="0.1" d="M179.823 107.218H165.101C164.58 107.218 164.157 107.664 164.157 108.215V111.525C164.157 112.075 164.58 112.522 165.101 112.522H179.823C180.344 112.522 180.767 112.075 180.767 111.525V108.215C180.767 107.664 180.344 107.218 179.823 107.218Z" fill="white"/>
<path opacity="0.1" d="M197.207 112.523H182.485C181.963 112.523 181.541 112.97 181.541 113.52V116.83C181.541 117.381 181.963 117.827 182.485 117.827H197.207C197.728 117.827 198.151 117.381 198.151 116.83V113.52C198.151 112.97 197.728 112.523 197.207 112.523Z" fill="white"/>
<path opacity="0.1" d="M108.36 91.3044H93.6378C93.1164 91.3044 92.6937 91.7509 92.6937 92.3016V95.6113C92.6937 96.162 93.1164 96.6084 93.6378 96.6084H108.36C108.881 96.6084 109.304 96.162 109.304 95.6113V92.3016C109.304 91.7509 108.881 91.3044 108.36 91.3044Z" fill="white"/>
<path opacity="0.1" d="M125.743 96.6084H111.02C110.499 96.6084 110.076 97.0549 110.076 97.6056V100.915C110.076 101.466 110.499 101.912 111.02 101.912H125.743C126.264 101.912 126.687 101.466 126.687 100.915V97.6056C126.687 97.0549 126.264 96.6084 125.743 96.6084Z" fill="white"/>
<path opacity="0.1" d="M143.126 101.914H128.404C127.883 101.914 127.46 102.36 127.46 102.911V106.221C127.46 106.771 127.883 107.218 128.404 107.218H143.126C143.648 107.218 144.07 106.771 144.07 106.221V102.911C144.07 102.36 143.648 101.914 143.126 101.914Z" fill="white"/>
<path opacity="0.1" d="M108.36 83.347H93.6378C93.1164 83.347 92.6937 83.7935 92.6937 84.3442V87.6539C92.6937 88.2046 93.1164 88.651 93.6378 88.651H108.36C108.881 88.651 109.304 88.2046 109.304 87.6539V84.3442C109.304 83.7935 108.881 83.347 108.36 83.347Z" fill="white"/>
<path opacity="0.1" d="M125.743 88.6525H111.02C110.499 88.6525 110.076 89.0989 110.076 89.6497V92.9593C110.076 93.51 110.499 93.9565 111.02 93.9565H125.743C126.264 93.9565 126.687 93.51 126.687 92.9593V89.6497C126.687 89.0989 126.264 88.6525 125.743 88.6525Z" fill="white"/>
<path opacity="0.1" d="M143.126 93.9564H128.404C127.883 93.9564 127.46 94.4029 127.46 94.9536V98.2632C127.46 98.814 127.883 99.2604 128.404 99.2604H143.126C143.648 99.2604 144.07 98.814 144.07 98.2632V94.9536C144.07 94.4029 143.648 93.9564 143.126 93.9564Z" fill="white"/>
<path opacity="0.1" d="M162.44 91.3044H147.718C147.197 91.3044 146.774 91.7509 146.774 92.3016V95.6113C146.774 96.162 147.197 96.6084 147.718 96.6084H162.44C162.962 96.6084 163.384 96.162 163.384 95.6113V92.3016C163.384 91.7509 162.962 91.3044 162.44 91.3044Z" fill="white"/>
<path opacity="0.1" d="M179.823 96.6084H165.101C164.58 96.6084 164.157 97.0549 164.157 97.6056V100.915C164.157 101.466 164.58 101.912 165.101 101.912H179.823C180.344 101.912 180.767 101.466 180.767 100.915V97.6056C180.767 97.0549 180.344 96.6084 179.823 96.6084Z" fill="white"/>
<path opacity="0.1" d="M197.207 101.914H182.485C181.963 101.914 181.541 102.36 181.541 102.911V106.221C181.541 106.771 181.963 107.218 182.485 107.218H197.207C197.728 107.218 198.151 106.771 198.151 106.221V102.911C198.151 102.36 197.728 101.914 197.207 101.914Z" fill="white"/>
<path opacity="0.1" d="M162.44 83.347H147.718C147.197 83.347 146.774 83.7935 146.774 84.3442V87.6539C146.774 88.2046 147.197 88.651 147.718 88.651H162.44C162.962 88.651 163.384 88.2046 163.384 87.6539V84.3442C163.384 83.7935 162.962 83.347 162.44 83.347Z" fill="white"/>
<path opacity="0.1" d="M179.823 88.6525H165.101C164.58 88.6525 164.157 89.0989 164.157 89.6497V92.9593C164.157 93.51 164.58 93.9565 165.101 93.9565H179.823C180.344 93.9565 180.767 93.51 180.767 92.9593V89.6497C180.767 89.0989 180.344 88.6525 179.823 88.6525Z" fill="white"/>
<path opacity="0.1" d="M197.207 93.9564H182.485C181.963 93.9564 181.541 94.4029 181.541 94.9536V98.2632C181.541 98.814 181.963 99.2604 182.485 99.2604H197.207C197.728 99.2604 198.151 98.814 198.151 98.2632V94.9536C198.151 94.4029 197.728 93.9564 197.207 93.9564Z" fill="white"/>
<path opacity="0.1" d="M142.5 171C180.884 171 212 165.021 212 157.646C212 150.271 180.884 144.292 142.5 144.292C104.116 144.292 73 150.271 73 157.646C73 165.021 104.116 171 142.5 171Z" fill="white"/>
<path d="M103.494 112.082L97.649 149.929L124.077 146.976L122.933 143.755L102.287 145.567L107.115 112.015L103.494 112.082Z" fill="#3F3D56"/>
<path d="M96.6326 69.1342L132.208 69L142.5 151.271L106.797 156.371L96.6326 69.1342Z" fill="#3F3D56"/>
<path d="M100.508 72.2882H129.223L139.26 148.788L109.656 153.083L100.508 72.2882Z" fill="white"/>
<path d="M127.589 145.347C127.769 145.712 127.904 146.107 128.139 146.436C128.825 147.405 130.127 147.556 131.104 148.188C131.153 148.215 131.193 148.256 131.22 148.306C131.264 148.418 131.165 148.535 131.07 148.604C130.329 149.153 129.357 149.165 128.451 149.159C128.147 149.17 127.842 149.139 127.545 149.067C127.066 148.933 126.656 148.58 126.183 148.437C125.938 148.372 125.687 148.335 125.435 148.325L124.443 148.254C124.179 148.25 123.917 148.199 123.669 148.102C123.545 148.052 123.436 147.97 123.35 147.863C123.265 147.757 123.207 147.629 123.181 147.492C123.153 147.269 123.243 147.053 123.297 146.835C123.424 146.32 123.384 145.697 123.764 145.346C123.921 145.219 124.1 145.128 124.292 145.077C124.982 144.831 125.687 144.633 126.402 144.484C126.99 144.362 127.328 144.818 127.589 145.347Z" fill="#3F3D56"/>
<path d="M116.364 148.25C116.39 148.536 116.397 148.863 116.202 149.063C116.08 149.17 115.933 149.24 115.776 149.265C114.837 149.495 113.79 149.512 112.973 148.972C112.888 148.921 112.813 148.853 112.752 148.772C112.684 148.662 112.645 148.534 112.64 148.403C112.611 148.023 112.722 147.649 112.822 147.282C113.06 146.413 113.24 145.527 113.362 144.632C113.372 144.558 115.76 145.034 115.918 145.284C116.118 145.593 116.119 146.333 116.173 146.701C116.253 147.215 116.317 147.731 116.364 148.25Z" fill="#3F3D56"/>
<path d="M125.251 113.326L125.886 119.565C126.013 120.84 126.147 122.122 126.059 123.401C125.957 124.877 125.566 126.354 125.731 127.816C125.796 128.385 125.943 128.944 125.965 129.517C125.969 129.898 125.951 130.279 125.91 130.658C125.623 134.444 126.532 138.2 127.04 141.96C127.121 142.423 127.139 142.897 127.093 143.366C127.027 143.843 126.895 144.468 127.296 144.693L123.525 146.138C123.044 145.5 123.363 144.508 123.271 143.699C123.187 142.97 122.809 142.321 122.607 141.619C122.424 140.988 122.386 140.324 122.326 139.669C121.997 136.103 120.987 132.629 120.75 129.055C120.743 128.71 120.7 128.367 120.623 128.031C120.496 127.587 120.242 127.199 120.057 126.782C119.772 126.155 119.632 125.468 119.495 124.789L118.688 120.796C117.873 122.079 117.906 123.749 117.744 125.287C117.518 127.434 117.012 129.545 116.601 131.666C116.505 132.122 116.433 132.583 116.386 133.048C116.279 134.292 116.491 135.548 116.378 136.791C116.251 138.231 115.678 139.636 115.817 141.076C115.893 141.874 116.183 142.628 116.378 143.401C116.574 144.174 116.671 145.022 116.372 145.759C115.328 145.354 114.207 145.224 113.105 145.378C111.895 144.069 111.68 142.244 111.597 140.412C111.515 138.58 111.714 136.745 111.498 134.931C111.435 134.394 111.336 133.871 111.319 133.335C111.266 131.619 112.047 130.012 112.436 128.344C112.786 126.842 112.819 125.277 112.534 123.761C112.343 122.758 112.015 121.785 111.898 120.769C111.74 119.345 112.009 117.91 112.28 116.504C112.461 115.555 112.642 114.606 112.847 113.663C113.069 112.649 113.332 111.615 113.922 110.785C114.868 109.458 116.546 108.869 118.115 108.997C119.684 109.126 121.149 109.881 122.445 110.82C123.467 111.541 124.408 112.382 125.251 113.326Z" fill="#192534"/>
<path d="M121.035 89.4335C120.964 89.5544 120.914 89.6882 120.889 89.8281C120.857 90.1032 121.016 90.3555 121.143 90.5958C121.306 90.9044 121.431 91.2336 121.515 91.5755C121.576 91.7871 121.594 92.0096 121.57 92.2291C121.539 92.394 121.483 92.5526 121.405 92.6988C121.16 93.1981 120.796 93.6598 120.302 93.8678C119.919 94.0167 119.502 94.0345 119.109 93.9188C118.719 93.8021 118.35 93.617 118.017 93.3712C117.737 93.1838 117.486 92.9531 117.27 92.6868C117.065 92.3956 116.892 92.0803 116.755 91.7473C116.49 91.1635 116.222 90.5394 116.27 89.8992C116.273 89.8412 116.283 89.7838 116.301 89.7288C116.342 89.6293 116.4 89.5385 116.471 89.4603C117.013 88.7818 117.291 87.9111 117.249 87.0244L119.1 87.4687C119.508 87.5666 119.916 87.6646 120.318 87.7867C120.649 87.8874 121.157 88.027 121.372 88.3383C121.586 88.6497 121.181 89.149 121.035 89.4335Z" fill="#FBBEBE"/>
<path d="M120.044 89.1007C121.902 89.1007 123.408 87.5096 123.408 85.5468C123.408 83.5841 121.902 81.9929 120.044 81.9929C118.186 81.9929 116.68 83.5841 116.68 85.5468C116.68 87.5096 118.186 89.1007 120.044 89.1007Z" fill="#FBBEBE"/>
<path d="M119.503 92.7163C119.645 92.3875 119.953 92.1794 120.233 91.9728C120.514 91.7661 120.799 91.5017 120.853 91.1433C120.857 91.0623 120.876 90.9828 120.909 90.9098C121.017 90.738 121.274 90.8239 121.428 90.9501C121.801 91.2574 122.055 91.6936 122.303 92.119C122.624 92.6364 122.898 93.1841 123.123 93.7551C123.48 94.7496 123.523 95.8353 123.562 96.8969C123.598 97.8633 123.632 98.8443 123.41 99.7811C123.27 100.374 123.029 100.95 123.015 101.561C122.973 103.779 122.243 105.9 122.193 108.118C122.189 108.76 122.219 109.401 122.284 110.039L122.403 111.479C120.556 111.367 118.714 111.196 116.876 110.965C116.823 110.302 116.644 109.659 116.48 109.017C115.809 106.395 115.379 103.71 115.196 101C115.098 99.561 114.997 98.1277 114.846 96.6943C114.71 95.3911 114.443 94.0799 114.603 92.7794C114.687 92.1882 114.863 91.6159 115.124 91.0856C115.207 90.8744 115.349 90.695 115.531 90.5716C115.622 90.5251 115.719 90.4922 115.818 90.4736C116.106 90.412 116.399 90.3756 116.692 90.3649C116.764 90.3585 116.836 90.3658 116.906 90.3864C117.03 90.4516 117.131 90.5557 117.197 90.6843C117.763 91.5833 118.564 92.2893 119.503 92.7163Z" fill="#F2F2F2"/>
<path d="M117.943 92.4318C118.179 92.7888 118.679 92.8733 118.898 93.237C118.972 93.3891 119.027 93.5499 119.064 93.7162C119.198 94.1658 119.467 94.5563 119.631 94.9952C119.867 95.626 119.874 96.3239 119.876 97.0017C119.9 97.5415 119.86 98.0824 119.759 98.6122C119.683 98.9437 119.559 99.2591 119.467 99.5865C119.312 100.143 119.254 100.726 119.297 101.304C119.297 101.429 119.329 101.552 119.388 101.66C119.475 101.768 119.587 101.849 119.714 101.894C120.086 102.067 120.476 102.244 120.883 102.204C120.966 102.201 121.047 102.172 121.115 102.122C121.162 102.076 121.201 102.022 121.229 101.962L121.484 101.508C121.714 101.094 121.954 100.629 121.865 100.156C121.8 99.9111 121.703 99.6775 121.576 99.4617C121.414 99.1116 121.276 98.7497 121.162 98.3787C120.757 97.1479 120.346 95.8998 120.255 94.6006C120.201 94.1062 120.253 93.6053 120.407 93.1351C120.527 92.8456 120.677 92.5714 120.855 92.3177C120.814 92.2607 120.759 92.2179 120.695 92.1952C120.631 92.1724 120.562 92.1707 120.498 92.1902C120.37 92.2319 120.246 92.2863 120.128 92.3526C119.754 92.519 119.34 92.4586 118.963 92.3446C118.815 92.2989 118.582 92.1432 118.429 92.154C118.377 92.1607 117.951 92.4479 117.943 92.4318Z" fill="white"/>
<path d="M120.917 92.4171C120.841 92.3526 120.722 92.2936 120.655 92.3687C120.632 92.4013 120.616 92.4383 120.607 92.4775C120.541 92.6654 120.346 92.758 120.17 92.8304C119.993 92.9029 119.803 92.9432 119.696 92.8049C119.662 92.7511 119.646 92.6873 119.649 92.6229C119.652 92.5585 119.674 92.4967 119.712 92.4466C119.79 92.3471 119.885 92.2631 119.991 92.1983C120.575 91.7626 120.973 91.1009 121.099 90.3569C121.262 90.4945 121.371 90.6926 121.402 90.9112C121.444 91.1246 121.449 91.3447 121.491 91.5581C121.553 91.8641 121.692 92.15 121.724 92.46C121.74 92.6251 121.724 92.7915 121.724 92.9566C121.729 93.118 121.747 93.2787 121.777 93.4371C121.48 93.1042 121.27 92.7137 120.917 92.4171Z" fill="#F2F2F2"/>
<path d="M118.345 91.5057C118.218 91.3782 118.091 91.2575 117.964 91.1273C117.407 90.5524 116.986 89.8465 116.735 89.0671C116.573 89.2013 116.394 89.3785 116.39 89.604C116.404 89.7635 116.463 89.9151 116.558 90.0402C117.038 90.8394 117.355 91.7358 117.489 92.672C117.558 92.5588 117.653 92.4661 117.765 92.4028C117.877 92.3396 118.003 92.308 118.131 92.311C118.331 92.311 119.232 92.8747 119.297 92.7324C119.392 92.5096 118.498 91.6574 118.345 91.5057Z" fill="#F2F2F2"/>
<path d="M121.182 90.4374C122.378 91.6942 123.841 92.6299 125.449 93.1659C125.609 93.2028 125.757 93.2822 125.88 93.3968C125.971 93.5176 126.033 93.6606 126.059 93.8128C126.369 95.0932 126.473 96.4179 126.576 97.7345C126.603 97.9522 126.599 98.173 126.563 98.3894C126.488 98.7411 126.252 99.0256 126.019 99.29C125.29 100.115 124.458 100.978 124.335 102.1C124.325 102.317 124.301 102.532 124.262 102.745C124.199 102.994 124.058 103.214 123.971 103.457C123.547 104.653 124.506 106.101 123.922 107.215C124.238 107.857 124.455 108.549 124.565 109.263C124.584 109.534 124.643 109.8 124.739 110.052C124.913 110.436 125.271 110.68 125.553 110.992C126.413 111.923 126.519 113.349 126.57 114.649C126.601 115.382 126.591 116.223 126.061 116.704C125.755 116.984 125.337 117.076 124.937 117.145C124.405 117.239 123.825 117.306 123.354 117.029C123.016 116.83 122.786 116.482 122.566 116.147C122.149 115.507 121.731 114.868 121.336 114.211C120.711 113.177 120.121 111.994 120.302 110.781C120.251 112.023 120.003 113.273 119.426 114.355C118.85 115.437 117.921 116.34 116.794 116.697C115.667 117.054 114.349 116.802 113.509 115.932C113.235 115.634 113 115.299 112.809 114.935C112.331 114.07 111.982 113.133 111.775 112.155C111.72 111.902 111.68 111.619 111.801 111.392C111.858 111.284 111.945 111.2 112.005 111.094C112.206 110.733 112.013 110.278 111.818 109.91C111.522 109.94 111.31 109.572 111.337 109.258C111.363 108.944 111.541 108.671 111.667 108.385C112.036 107.543 111.954 106.561 111.776 105.653C111.599 104.744 111.333 103.841 111.353 102.914C111.375 101.933 110.707 101.049 110.197 100.229C109.912 99.7678 109.581 99.3383 109.333 98.8538C108.817 97.8342 108.697 96.6419 109 95.5307C109.178 94.9601 109.411 94.4105 109.696 93.8907L110.116 93.0599C110.194 92.8614 110.315 92.6851 110.47 92.5452C110.624 92.4053 110.808 92.3058 111.005 92.2547L113.906 91.0468C114.277 90.9129 114.629 90.7269 114.953 90.4938C115.307 90.212 115.572 89.8228 115.91 89.5221C115.959 89.4675 116.018 89.4238 116.083 89.3936C116.149 89.3634 116.219 89.3473 116.291 89.3463C116.563 89.3718 116.659 89.7342 116.687 90.0174C116.751 90.6508 117.195 91.1877 117.347 91.8037C118.165 95.2059 119.897 98.3438 120.372 101.817C120.905 100.463 121.439 99.1061 122.123 97.8311C122.23 97.6481 122.321 97.4543 122.393 97.2527C122.475 96.9618 122.506 96.6574 122.483 96.3548C122.449 95.4811 122.229 94.6275 122.012 93.7833C121.73 92.6345 121.476 91.5755 121.182 90.4374Z" fill="#3F3D56"/>
<path d="M126.711 100.833C126.767 101.405 126.821 101.978 126.922 102.543C127.038 103.197 127.216 103.836 127.393 104.475C127.479 104.834 127.603 105.182 127.761 105.512C127.819 105.608 127.865 105.711 127.897 105.819C127.96 106.088 127.817 106.356 127.756 106.625C127.573 107.43 128.122 108.325 127.777 109.067C127.672 109.293 127.491 109.479 127.422 109.721C127.342 109.999 127.422 110.295 127.464 110.582C127.572 111.388 127.312 112.206 127.055 112.981L126.618 114.288C126.219 113.504 125.816 112.712 125.265 112.04C125.068 111.798 124.853 111.574 124.671 111.319C124.4 110.919 124.186 110.478 124.036 110.012C123.648 108.905 123.427 107.74 123.379 106.56C123.348 106.225 123.385 105.886 123.487 105.567C123.571 105.382 123.665 105.203 123.769 105.03C124.11 104.382 124.18 103.614 124.173 102.873C124.167 102.133 124.092 101.389 124.173 100.652C124.24 100.037 124.412 99.4398 124.682 98.8901C124.841 98.534 125.077 98.2227 125.371 97.9814C125.591 97.8077 125.859 97.7156 126.134 97.7197C126.549 97.7452 126.454 98.1224 126.49 98.4861L126.711 100.833Z" fill="#3F3D56"/>
<path d="M108.022 99.0068C107.763 99.8121 107.529 100.625 107.321 101.444C107.117 102.249 106.936 103.059 106.776 103.873C106.693 104.231 106.647 104.598 106.638 104.966C106.655 105.395 106.724 105.819 106.845 106.229C107.664 109.344 109.155 112.217 110.835 114.919C111.315 114.287 111.885 113.737 112.525 113.29C112.577 113.257 112.621 113.211 112.652 113.155C112.668 113.103 112.673 113.048 112.666 112.993C112.659 112.939 112.64 112.887 112.611 112.841C112.147 111.837 111.413 110.953 111.182 109.862C111.085 109.408 111.081 108.936 110.972 108.485C110.831 107.901 110.516 107.367 110.444 106.768C110.366 106.116 110.571 105.405 110.281 104.826C110.872 104.583 111.214 103.94 111.464 103.324C111.731 102.694 111.923 102.031 112.033 101.35C112.207 100.045 111.965 98.716 111.346 97.5721C111.043 97.0015 110.655 96.4866 110.196 96.0475C110.045 95.9039 109.688 95.4919 109.468 95.4959C109.174 95.5026 109.08 96.0045 108.996 96.23C108.657 97.1507 108.322 98.0727 108.022 99.0068Z" fill="#3F3D56"/>
<path d="M113.285 114.029C113.323 114.058 113.366 114.099 113.356 114.147C113.346 114.195 113.309 114.207 113.276 114.228C113.104 114.356 112.976 114.54 112.91 114.751C112.699 115.254 112.515 115.769 112.358 116.293C112.074 115.843 111.74 115.431 111.362 115.065C111.073 114.783 110.749 114.516 110.594 114.135C110.594 114.124 111.259 113.605 111.32 113.548C111.507 113.373 111.742 112.885 111.935 112.778C112.154 112.657 112.362 113.131 112.529 113.322C112.758 113.584 113.011 113.82 113.285 114.029Z" fill="#FBBEBE"/>
<path d="M123.617 84.9912C123.608 84.8154 123.586 84.6208 123.459 84.5067C123.348 84.4252 123.213 84.3859 123.078 84.3953C122.337 84.3698 121.571 84.5013 120.872 84.2383C120.412 84.0651 120.02 83.7323 119.571 83.5256C119.123 83.3189 118.549 83.2639 118.186 83.6115C117.912 83.8799 117.837 84.292 117.742 84.6718C117.532 85.5101 117.158 86.2927 116.645 86.9695C116.301 86.8567 116.054 86.5319 115.896 86.191C115.356 85.0288 115.621 83.641 116.005 82.409C116.132 81.9956 116.273 81.5863 116.414 81.1783L116.724 80.2764C117.131 80.2342 117.509 80.0355 117.786 79.7181L117.92 80.0603C118.264 80.0472 118.597 79.9231 118.873 79.7046C118.979 79.9167 119.254 79.9731 119.476 79.9046C119.698 79.8362 119.89 79.7046 120.111 79.6362C120.702 79.4349 121.332 79.7449 121.952 79.7798C122.215 79.773 122.477 79.7811 122.739 79.804C123.471 79.9288 123.988 80.6562 124.211 81.4024C124.36 81.899 124.483 82.5096 124.947 82.6855C124.957 82.8733 124.642 82.9096 124.615 83.0881C124.612 83.1476 124.626 83.2068 124.654 83.2585L125.079 84.2235C124.876 84.2775 124.662 84.2662 124.464 84.1913C124.272 84.6677 123.636 85.3549 123.617 84.9912Z" fill="#192534"/>
<path d="M145.186 87.0915C145.402 87.8275 145.571 88.5775 145.694 89.3369C145.786 89.9059 145.839 90.5381 145.53 91.0132C146.707 89.1436 147.936 87.2177 149.723 86.0112C149.359 85.5942 149.082 85.1011 148.91 84.5637C148.739 84.0263 148.676 83.4568 148.726 82.8921C148.736 82.7794 147.258 83.3685 147.145 83.4357C146.627 83.7403 146.152 84.1188 145.646 84.4449C145.384 84.6127 144.294 85.0099 144.284 85.2502C144.284 85.4045 144.717 85.8769 144.799 86.0393C144.958 86.3767 145.088 86.729 145.186 87.0915Z" fill="#FBBEBE"/>
<path d="M150.653 157.603C150.363 157.387 150.022 157.258 149.668 157.23C149.314 157.201 148.959 157.275 148.641 157.442C148.065 157.756 147.677 158.351 147.154 158.753C146.254 159.443 145.066 159.498 144.013 159.871C143.734 159.971 143.436 160.118 143.318 160.408C143.279 160.53 143.263 160.659 143.272 160.788C143.281 160.916 143.314 161.041 143.37 161.156C143.546 161.57 143.855 161.906 144.242 162.105C144.715 162.343 145.258 162.354 145.782 162.361L150.33 162.417C151.728 162.435 153.135 162.452 154.523 162.636C154.847 162.679 155.198 162.726 155.484 162.558C155.949 162.29 156.002 161.611 155.967 161.051C155.873 159.633 155.573 158.239 155.077 156.917C155.023 156.771 154.95 156.605 154.796 156.578C154.687 156.573 154.58 156.609 154.494 156.68C153.211 157.485 151.586 157.94 150.221 157.296" fill="white"/>
<path d="M152.93 126.949C152.422 130.067 152.753 133.271 153.325 136.375C153.43 136.993 153.569 137.604 153.741 138.206C153.945 138.89 154.221 139.548 154.413 140.236C154.901 141.981 154.832 143.846 154.76 145.668L154.427 153.955C154.399 154.65 154.373 155.362 154.572 156.025C154.652 156.293 154.749 156.629 154.547 156.81C154.468 156.87 154.376 156.907 154.279 156.919C153.37 157.096 152.431 156.947 151.611 156.496L151.521 148.124C151.493 145.543 151.464 142.951 151.088 140.403C150.789 138.376 150.271 136.376 150.236 134.326C150.201 132.178 150.699 130.059 151.207 127.977C151.316 127.532 151.715 127.206 152.043 126.904C152.158 126.785 152.297 126.695 152.45 126.643C152.602 126.599 152.836 126.814 152.93 126.949Z" fill="#3F3D56"/>
<path opacity="0.1" d="M152.93 126.949C152.422 130.067 152.753 133.271 153.325 136.375C153.43 136.993 153.569 137.604 153.741 138.206C153.945 138.89 154.221 139.548 154.413 140.236C154.901 141.981 154.832 143.846 154.76 145.668L154.427 153.955C154.399 154.65 154.373 155.362 154.572 156.025C154.652 156.293 154.749 156.629 154.547 156.81C154.468 156.87 154.376 156.907 154.279 156.919C153.37 157.096 152.431 156.947 151.611 156.496L151.521 148.124C151.493 145.543 151.464 142.951 151.088 140.403C150.789 138.376 150.271 136.376 150.236 134.326C150.201 132.178 150.699 130.059 151.207 127.977C151.316 127.532 151.715 127.206 152.043 126.904C152.158 126.785 152.297 126.695 152.45 126.643C152.602 126.599 152.836 126.814 152.93 126.949Z" fill="black"/>
<path d="M143.389 117.206C143.201 118.023 143.6 118.87 143.556 119.71C143.53 120.219 143.341 120.726 143.429 121.225C143.516 121.725 143.854 122.1 144.035 122.558C144.166 122.94 144.236 123.343 144.241 123.75C144.293 124.754 144.251 125.763 144.215 126.763C144.156 128.441 144.111 130.128 144.321 131.79C144.503 133.231 144.874 134.638 145.422 135.971C145.589 136.334 145.726 136.71 145.833 137.097C145.903 137.457 145.95 137.822 145.972 138.19C146.093 139.384 146.397 140.549 146.871 141.64C147.195 142.388 147.76 142.982 147.939 143.775C148.11 144.535 147.995 145.336 148.118 146.105C148.209 146.676 148.429 147.215 148.55 147.779C148.709 148.508 148.705 149.263 148.786 150.007C149.014 152.154 149.938 154.302 149.387 156.385C149.276 156.803 149.104 157.229 149.182 157.655C149.22 157.865 149.317 158.072 149.273 158.28C149.238 158.457 149.108 158.594 149.042 158.761C148.915 159.075 149.05 159.449 149.276 159.691C149.517 159.918 149.798 160.093 150.102 160.207C151.038 160.63 152.008 161.059 153.024 161.05C153.148 161.057 153.271 161.033 153.384 160.98C153.567 160.879 153.657 160.66 153.734 160.459L154.255 159.098C154.319 158.933 154.382 158.74 154.295 158.587C154.234 158.503 154.16 158.43 154.076 158.372C153.656 157.998 153.751 157.298 153.863 156.736C154.148 155.292 154.307 153.823 154.335 152.347C154.391 149.406 153.933 146.481 153.475 143.578C153.316 142.57 153.156 141.556 152.84 140.589C152.524 139.623 152.057 138.693 152.133 137.689C152.215 136.605 151.948 135.468 152.133 134.398C152.319 133.328 152.612 132.282 152.802 131.213C153.047 129.827 153.108 128.414 153.183 127.007C153.215 126.433 153.255 125.84 153.51 125.33C153.658 125.032 153.874 124.777 154.041 124.488C154.47 123.738 154.539 122.808 154.949 122.045C155.143 121.684 155.412 121.366 155.554 120.98C155.654 120.675 155.706 120.355 155.709 120.032C155.749 119.222 155.707 118.41 155.582 117.61C153.419 116.447 151.02 115.859 148.594 115.897C147.665 115.913 146.726 116.013 145.854 116.352C145.023 116.678 144.266 117.136 143.389 117.206Z" fill="#3F3D56"/>
<path d="M148.599 159.726C148.225 160.218 148.251 160.919 148.012 161.498C147.722 162.2 147.077 162.649 146.464 163.059L142.652 165.609C142.444 165.743 142.22 165.908 142.144 166.158C142.108 166.317 142.115 166.484 142.163 166.64C142.254 166.976 142.424 167.284 142.657 167.533C142.889 167.783 143.177 167.966 143.495 168.068C143.832 168.152 144.179 168.19 144.525 168.179L146.239 168.203C146.761 168.225 147.284 168.203 147.803 168.139C148.279 168.066 148.741 167.923 149.214 167.831C150.074 167.666 150.958 167.681 151.82 167.521C152.347 167.412 152.868 167.27 153.38 167.096C154.002 166.899 154.636 166.693 155.17 166.303C155.317 166.208 155.436 166.073 155.514 165.911C155.605 165.689 155.555 165.436 155.504 165.201L154.686 161.403C154.64 161.086 154.531 160.784 154.366 160.516C154.184 160.261 153.858 160.091 153.574 160.2C153.457 160.256 153.347 160.327 153.245 160.41C152.826 160.701 152.288 160.749 151.793 160.658C151.473 160.597 151.05 160.505 150.792 160.281C150.596 160.11 150.538 159.846 150.371 159.653C150.254 159.526 150.114 159.427 149.959 159.361C149.803 159.296 149.637 159.266 149.469 159.272C149.302 159.279 149.138 159.323 148.988 159.402C148.838 159.48 148.706 159.59 148.599 159.726Z" fill="white"/>
<path d="M146.127 86.5682C148.663 86.5682 150.718 84.3972 150.718 81.7191C150.718 79.0411 148.663 76.8701 146.127 76.8701C143.592 76.8701 141.537 79.0411 141.537 81.7191C141.537 84.3972 143.592 86.5682 146.127 86.5682Z" fill="#FBBEBE"/>
<path d="M142.586 82.0036C143.026 81.7433 143.026 80.993 143.476 80.7434C143.926 80.4938 144.436 80.9273 144.725 81.3648C145.145 82.0056 145.437 82.7304 145.582 83.4947C145.623 83.7121 145.661 83.9497 145.816 84.1013C145.971 84.253 146.174 84.2718 146.373 84.2933C146.953 84.3541 147.534 84.4096 148.116 84.4597C148.764 84.5147 149.447 84.559 150.036 84.2651C150.268 84.1554 150.467 83.981 150.613 83.7605C150.729 83.5487 150.812 83.3185 150.859 83.0787C151.163 81.8587 151.469 80.624 151.494 79.3624C151.505 78.8416 151.461 78.3021 151.224 77.8458C151.085 77.5774 150.882 77.3438 150.825 77.0486C150.768 76.7533 150.952 76.3775 151.242 76.4097C150.98 76.4211 150.719 76.3688 150.479 76.2567C150.249 76.1225 150.079 75.834 150.16 75.5709C149.515 75.6582 149.045 74.9844 148.542 74.5482C148.46 74.4626 148.349 74.4144 148.234 74.414C148.146 74.4373 148.06 74.472 147.98 74.5174C147.726 74.6113 147.46 74.4328 147.2 74.355C146.501 74.1483 145.613 74.6476 145.095 74.1107C145.144 74.453 144.746 74.6825 144.419 74.6757C144.091 74.669 143.753 74.5415 143.443 74.657C143.488 74.7437 143.514 74.8399 143.52 74.9385C143.525 75.0372 143.51 75.136 143.475 75.2278C143.441 75.3196 143.387 75.4022 143.319 75.4697C143.25 75.5371 143.169 75.5877 143.079 75.6179L143.233 75.9722C143.075 76.0057 142.928 76.0852 142.81 76.2019C142.693 76.3186 142.608 76.4677 142.566 76.6325C142.397 77.3371 142.439 78.3383 142.48 79.0631C142.5 79.3812 142.794 81.8842 142.586 82.0036Z" fill="#192534"/>
<path d="M146.503 87.9693C144.197 90.7086 143.61 94.5644 143.119 98.1948L142.394 103.555C142.206 104.946 142.013 106.336 141.849 107.73C141.735 108.685 141.628 109.654 141.753 110.607C141.851 111.358 142.088 112.083 142.286 112.806C142.802 114.704 143.059 116.669 143.049 118.643C143.203 118.165 143.735 117.972 144.203 117.865C148.126 116.966 152.219 117.427 155.874 119.181C156.516 117.282 156.395 115.205 156.574 113.197C156.828 110.334 157.704 107.56 157.963 104.703C158.058 103.638 158.069 102.569 158.08 101.499C158.087 100.714 158.095 99.9208 157.94 99.1517C157.767 98.3009 157.402 97.5077 157.025 96.736C155.982 94.5908 154.823 92.5106 153.554 90.5059C152.915 89.4966 152.249 88.5075 151.555 87.5385C151.204 87.0473 150.845 86.5615 150.479 86.081C150.125 85.6153 149.971 85.2113 149.408 85.4905C148.345 86.0166 147.277 87.05 146.503 87.9693Z" fill="white"/>
<path d="M147.825 110.769C147.262 110.79 146.699 110.772 146.139 110.713C145.723 110.67 145.299 110.605 144.894 110.713C144.718 110.759 144.553 110.845 144.41 110.964C144.357 111.013 144.319 111.078 144.3 111.151C144.282 111.223 144.283 111.299 144.305 111.371C144.327 111.442 144.369 111.505 144.424 111.552C144.479 111.599 144.546 111.627 144.617 111.635L145.051 111.675C145.327 111.7 145.614 111.73 145.829 111.943C145.917 112.027 145.973 112.142 145.986 112.267C146.013 112.579 145.756 112.75 145.526 112.88C145.2 113.042 144.897 113.255 144.629 113.511C144.42 113.725 144.288 114.01 144.257 114.316C144.256 114.343 144.262 114.371 144.274 114.395C144.286 114.419 144.304 114.439 144.326 114.454C144.348 114.468 144.373 114.477 144.399 114.478C144.425 114.479 144.45 114.472 144.473 114.46C144.981 114.191 145.313 113.395 145.871 113.528C145.363 113.698 144.929 114.051 144.643 114.526C144.573 114.639 144.541 114.774 144.552 114.909C144.564 115.044 144.618 115.171 144.706 115.269C144.794 115.368 144.912 115.431 145.039 115.451C145.165 115.47 145.295 115.443 145.406 115.375C145.488 115.324 145.568 115.268 145.645 115.207C146.023 114.884 146.361 114.513 146.652 114.101C146.246 115.007 145.834 116.068 146.302 116.968C146.325 117.018 146.361 117.059 146.406 117.087C146.451 117.115 146.503 117.129 146.556 117.127C146.703 117.11 146.746 116.964 146.77 116.835C146.847 116.421 146.866 115.983 147.059 115.614C147.506 114.758 148.609 114.674 149.449 114.257C150.456 113.763 151.146 112.7 151.424 111.565C151.522 111.234 151.539 110.882 151.474 110.542C151.287 109.778 150.395 109.603 149.822 109.972C149.12 110.443 148.712 110.739 147.825 110.769Z" fill="#FBBEBE"/>
<path opacity="0.1" d="M146.933 95.7468C147.822 97.1976 149.366 98.0149 150.69 99.0336C151.013 99.2558 151.295 99.5388 151.521 99.8684C151.855 100.413 151.902 101.106 151.834 101.747C151.747 102.594 151.489 103.409 151.234 104.217L150.679 105.968C150.327 107.08 149.963 108.214 149.294 109.148C149.122 109.385 148.923 109.639 148.93 109.937C148.945 110.109 149.001 110.274 149.093 110.417C149.307 110.787 149.59 111.107 149.923 111.359C150.257 111.61 150.635 111.789 151.036 111.883C151.275 111.947 151.527 111.947 151.766 111.883C152.109 111.776 152.367 111.48 152.606 111.201C153.75 109.868 154.893 108.517 155.719 106.953C156.526 105.427 157.009 103.732 157.453 102.053C157.636 101.435 157.764 100.8 157.834 100.157C157.928 98.9491 157.629 97.7412 157.138 96.65C156.648 95.5589 155.973 94.5711 155.278 93.6115C154.622 92.6689 153.893 91.7855 153.099 90.9702C151.717 89.6053 150.026 88.8027 148.176 89.5771C146.869 90.1247 146.38 91.2668 146.263 92.7297C146.164 93.786 146.4 94.8471 146.933 95.7468Z" fill="black"/>
<path d="M147.395 95.3791C148.285 96.8299 149.83 97.6473 151.153 98.6659C151.474 98.8903 151.755 99.1751 151.98 99.5061C152.314 100.051 152.361 100.742 152.292 101.385C152.205 102.232 151.948 103.047 151.691 103.855L151.136 105.599C150.784 106.711 150.421 107.843 149.751 108.779C149.581 109.016 149.381 109.269 149.389 109.568C149.403 109.74 149.459 109.905 149.552 110.047C149.766 110.416 150.048 110.737 150.381 110.989C150.715 111.241 151.093 111.419 151.493 111.514C151.733 111.578 151.985 111.578 152.225 111.514C152.568 111.408 152.825 111.111 153.065 110.833C154.208 109.499 155.352 108.149 156.178 106.586C156.984 105.06 157.467 103.365 157.912 101.684C158.096 101.067 158.223 100.432 158.293 99.7893C158.387 98.5814 158.087 97.3735 157.598 96.281C157.109 95.1885 156.433 94.2021 155.738 93.2425C155.08 92.3048 154.349 91.4263 153.554 90.616C152.173 89.2524 150.482 88.4485 148.632 89.2242C147.324 89.7718 146.836 90.9126 146.718 92.3768C146.625 93.429 146.863 94.4844 147.395 95.3791Z" fill="white"/>
<path d="M175.49 143.519C175.491 143.869 175.457 144.218 175.389 144.561C175.376 144.625 175.362 144.695 175.348 144.75C174.987 146.278 173.969 147.396 172.755 147.467C172.714 147.467 172.673 147.467 172.628 147.467C171.343 147.467 170.257 146.297 169.899 144.685C169.888 144.642 169.879 144.599 169.871 144.551C169.802 144.209 169.768 143.86 169.769 143.51C169.769 141.326 171.048 139.557 172.628 139.557C174.207 139.557 175.49 141.339 175.49 143.519Z" fill="#3F3D56"/>
<path opacity="0.1" d="M175.49 143.519C175.491 143.869 175.457 144.218 175.389 144.56C175.376 144.625 175.362 144.695 175.348 144.75C175.305 144.75 175.263 144.75 175.221 144.75C174.906 144.732 174.593 144.687 174.286 144.616C174.013 144.705 173.734 144.772 173.452 144.817C173.236 144.851 173.018 144.873 172.799 144.881H172.578C172.316 144.881 172.055 144.863 171.795 144.826C171.376 144.767 170.964 144.659 170.567 144.504C170.349 144.581 170.128 144.643 169.904 144.692C169.893 144.649 169.884 144.606 169.876 144.558C169.807 144.215 169.773 143.866 169.774 143.516C169.774 141.333 171.053 139.564 172.633 139.564C174.212 139.564 175.49 141.339 175.49 143.519Z" fill="black"/>
<path d="M181.589 136.156C181.59 135.195 181.377 134.248 180.966 133.39L177.605 134.495L180.556 132.661C180.061 131.906 179.412 131.278 178.656 130.823C177.9 130.368 177.058 130.099 176.19 130.034C176.052 129.812 175.901 129.601 175.737 129.4L170.909 130.988L174.869 128.528C174.111 127.914 173.222 127.506 172.28 127.341C171.338 127.177 170.372 127.26 169.467 127.584C168.563 127.907 167.748 128.461 167.094 129.197C166.441 129.933 165.969 130.827 165.721 131.801L169.857 136.83L165.37 133.402C164.234 134.254 163.425 135.508 163.09 136.937C162.756 138.366 162.919 139.874 163.549 141.186C164.18 142.499 165.235 143.529 166.524 144.088C167.813 144.647 169.249 144.699 170.571 144.233C171.766 144.697 173.073 144.736 174.291 144.342C175.14 144.539 176.02 144.533 176.867 144.324C177.714 144.114 178.505 143.707 179.183 143.132C179.861 142.557 180.408 141.829 180.785 141.001C181.161 140.173 181.357 139.266 181.358 138.348C181.358 138.214 181.358 138.08 181.345 137.945C181.51 137.365 181.592 136.762 181.589 136.156Z" fill="white"/>
<path opacity="0.1" d="M181.489 137.294C179.713 136.939 177.892 136.914 176.109 137.222C174.09 137.575 172.027 138.351 170.052 137.784C168.893 137.451 167.892 136.681 166.76 136.253C165.668 135.85 164.491 135.776 163.361 136.038C162.931 137.126 162.806 138.322 163.002 139.483C163.197 140.644 163.705 141.721 164.465 142.585C165.224 143.45 166.204 144.065 167.285 144.357C168.367 144.649 169.505 144.606 170.564 144.233C171.76 144.697 173.066 144.735 174.284 144.342C175.134 144.539 176.014 144.533 176.861 144.324C177.707 144.114 178.499 143.707 179.177 143.132C179.854 142.557 180.402 141.829 180.778 141.001C181.155 140.173 181.35 139.266 181.351 138.348C181.351 138.214 181.351 138.08 181.339 137.945C181.4 137.731 181.45 137.514 181.489 137.294Z" fill="black"/>
</g>
<defs>
<clipPath id="clip0_28_497">
<rect width="139" height="102" fill="white" transform="translate(73 69)"/>
</clipPath>
</defs>
</svg>
