<svg width="292" height="258" viewBox="0 0 292 258" fill="none" xmlns="http://www.w3.org/2000/svg">
<path d="M201.042 71.079C211.7 78.819 210.532 98.943 217.686 119.97C224.84 140.997 240.17 162.927 235.644 179.31C231.118 195.564 206.736 206.271 181.04 214.785C155.49 223.299 128.772 229.62 111.836 220.461C95.046 211.302 88.33 186.663 80.884 166.539C73.438 146.415 65.554 130.806 64.97 113.391C64.386 95.976 71.248 76.755 85.994 69.66C100.74 62.565 123.37 67.596 145.854 67.854C168.192 67.983 190.53 63.339 201.042 71.079Z" fill="white"/>
<g clip-path="url(#clip0_28_559)">
<path d="M167.166 142.224C167.422 142.224 167.667 142.326 167.848 142.507C168.029 142.688 168.131 142.933 168.131 143.189V152.522H186.636C186.892 152.522 187.137 152.623 187.318 152.804C187.499 152.985 187.601 153.23 187.601 153.486C187.601 153.742 187.499 153.988 187.318 154.168C187.137 154.349 186.892 154.451 186.636 154.451H168.131V186.726H166.201V143.189C166.201 142.933 166.303 142.688 166.484 142.507C166.665 142.326 166.91 142.224 167.166 142.224Z" fill="#E6E6E6"/>
<path d="M115.668 186.507L112.189 186.603C111.661 186.63 111.138 186.483 110.7 186.186C110.323 185.905 110.149 185.525 110.225 185.143L110.91 181.703C111.039 181.054 111.834 180.563 112.801 180.537L114.722 180.484C115.689 180.457 116.51 180.903 116.674 181.544L117.548 184.941C117.645 185.318 117.493 185.707 117.131 186.008C116.711 186.33 116.197 186.505 115.668 186.507Z" fill="#3F3D56"/>
<path d="M136.827 186.408L133.348 186.504C132.82 186.532 132.297 186.385 131.86 186.087C131.482 185.806 131.309 185.426 131.385 185.045L132.069 181.605C132.198 180.956 132.994 180.465 133.96 180.438L135.881 180.385C136.848 180.358 137.669 180.804 137.834 181.445L138.707 184.843C138.804 185.219 138.652 185.608 138.29 185.91C137.87 186.231 137.356 186.406 136.827 186.408Z" fill="#3F3D56"/>
<path d="M103.588 157.202C103.429 157.134 103.299 157.013 103.218 156.86C103.137 156.707 103.11 156.531 103.143 156.361C103.175 156.191 103.265 156.038 103.397 155.926C103.529 155.814 103.695 155.75 103.868 155.745L143.417 154.653C143.516 154.65 143.615 154.667 143.709 154.703C143.802 154.738 143.887 154.792 143.96 154.861C144.032 154.929 144.09 155.011 144.131 155.102C144.172 155.193 144.194 155.292 144.197 155.391C144.202 155.593 144.127 155.788 143.989 155.934C143.851 156.08 143.66 156.166 143.459 156.172L103.91 157.264C103.8 157.267 103.69 157.246 103.588 157.202Z" fill="#3F3D56"/>
<path d="M118.184 144.11L106.879 144.422L107.933 182.59L119.238 182.278L118.184 144.11Z" fill="#E6E6E6"/>
<path d="M118.47 143.424L116.297 149.344L116.299 176.314L118.947 177.074L118.47 143.424Z" fill="#CCCCCC"/>
<path d="M112.472 134.135C110.357 134.195 108.744 137.855 108.783 139.284L108.854 141.869L116.512 141.658L116.441 139.072C116.401 137.644 114.587 134.078 112.472 134.135Z" fill="#3F3D56"/>
<path d="M107.026 160.228C106.63 160.239 106.247 160.092 105.96 159.82C105.673 159.549 105.505 159.174 105.494 158.779L105.378 154.571C105.367 154.176 105.513 153.792 105.785 153.505C106.057 153.218 106.432 153.05 106.827 153.04C107.222 153.029 107.606 153.175 107.893 153.447C108.18 153.719 108.348 154.093 108.359 154.489L108.475 158.697C108.485 159.092 108.338 159.475 108.067 159.762C107.795 160.049 107.421 160.217 107.026 160.228Z" fill="#3F3D56"/>
<path d="M109.894 144.513L109.841 141.732L110.57 141.714L110.624 144.486L111.285 184.89L110.555 184.91" fill="#3F3D56"/>
<path d="M119.48 151.016L106.37 151.378C105.118 149.851 105.004 143.346 107.618 142.108L108.642 140.368L116.543 139.982L117.467 141.814C118.766 142.92 119.437 149.385 119.48 151.016Z" fill="#E6E6E6"/>
<path d="M114.546 147.896L111.231 147.988C110.591 148.005 110.047 147.175 110.018 146.138C109.99 145.1 110.487 144.241 111.127 144.224L114.442 144.132C115.082 144.115 115.625 144.945 115.654 145.982C115.683 147.02 115.185 147.878 114.546 147.896Z" fill="white"/>
<path d="M108.126 166.664L101.292 171.491L100.098 182.375L108.07 179.711L108.126 166.664Z" fill="#E6E6E6"/>
<path d="M140.006 143.643L128.701 143.955L129.755 182.123L141.06 181.811L140.006 143.643Z" fill="#E6E6E6"/>
<path d="M128.972 143.552L131.298 149.413L131.996 176.375L129.369 177.202L128.972 143.552Z" fill="#CCCCCC"/>
<path d="M145.66 133.046C146.478 133.046 147.141 132.156 147.141 131.059C147.141 129.961 146.478 129.072 145.66 129.072C144.841 129.072 144.178 129.961 144.178 131.059C144.178 132.156 144.841 133.046 145.66 133.046Z" fill="#E6E6E6"/>
<path d="M134.074 133.674C131.959 133.734 130.346 137.394 130.384 138.822L130.456 141.408L138.114 141.197L138.042 138.611C138.002 137.183 136.189 133.617 134.074 133.674Z" fill="#3F3D56"/>
<path d="M136.264 145.383L136.21 142.602L136.94 142.584L136.993 145.356L137.654 185.76L136.925 185.781" fill="#3F3D56"/>
<path d="M141.082 150.555L127.972 150.917C127.744 149.535 128.039 143.088 129.219 141.646L130.244 139.906L138.145 139.521L139.068 141.353C141.401 141.543 142.217 147.878 141.082 150.555Z" fill="#E6E6E6"/>
<path d="M136.164 148.015L132.848 148.107C132.209 148.125 131.661 147.164 131.628 145.967C131.595 144.769 132.089 143.78 132.728 143.762L136.044 143.671C136.683 143.653 137.231 144.613 137.264 145.811C137.297 147.009 136.803 147.998 136.164 148.015Z" fill="white"/>
<path d="M140.565 163.874L147.171 169.007L147.867 179.935L140.025 176.91L140.565 163.874Z" fill="#E6E6E6"/>
<path d="M138.72 113.262C131.631 113.262 123.484 105.395 116.277 109.133C94.4535 120.449 97.4576 101.513 91.188 94.4707L91.3938 94.0579C96.1402 112.163 100.435 141.013 116.371 108.653C120.364 100.546 133.466 113.076 141.178 112.707L141.191 113.203C140.377 113.242 139.553 113.262 138.72 113.262Z" fill="#F2F2F2"/>
<path d="M155.734 114.375C150.083 118.655 138.839 117.303 135.35 124.634C124.786 146.831 115.748 129.922 106.498 128.093L106.413 127.64C115.672 128.408 125.605 127.216 135.136 124.194C143.749 121.462 151.433 117.399 157.358 112.448L157.668 112.836C157.043 113.359 156.398 113.872 155.734 114.375Z" fill="#F2F2F2"/>
<path d="M94.2654 113.4C95.0837 113.4 95.7471 112.511 95.7471 111.413C95.7471 110.316 95.0837 109.426 94.2654 109.426C93.4471 109.426 92.7837 110.316 92.7837 111.413C92.7837 112.511 93.4471 113.4 94.2654 113.4Z" fill="#E6E6E6"/>
<path d="M140.222 97.2629C141.04 97.2629 141.704 96.3733 141.704 95.276C141.704 94.1786 141.04 93.2891 140.222 93.2891C139.404 93.2891 138.74 94.1786 138.74 95.276C138.74 96.3733 139.404 97.2629 140.222 97.2629Z" fill="#E6E6E6"/>
<path d="M107.831 121.42C107.154 121.871 106.46 120.797 107.151 120.365C107.828 119.914 108.522 120.988 107.831 121.42Z" fill="#E6E6E6"/>
<path d="M132.914 86.1628C132.237 86.6142 131.544 85.5399 132.234 85.1086C132.911 84.6572 133.605 85.7315 132.914 86.1628Z" fill="#E6E6E6"/>
<path d="M147.697 107.066L147.266 106.972L147.361 106.541L147.073 106.478L146.979 106.909L146.548 106.814L146.485 107.102L146.916 107.196L146.821 107.627L147.109 107.69L147.203 107.259L147.634 107.354L147.697 107.066Z" fill="#E6E6E6"/>
<path d="M108.193 92.6195C109.23 92.6195 110.07 91.779 110.07 90.7422C110.07 89.7055 109.23 88.865 108.193 88.865C107.156 88.865 106.316 89.7055 106.316 90.7422C106.316 91.779 107.156 92.6195 108.193 92.6195Z" fill="#FF6584"/>
<path d="M121.924 88.3661C119.809 88.4262 118.196 92.0864 118.234 93.5147L118.306 96.1004L125.964 95.889L125.892 93.3032C125.852 91.8749 124.039 88.3094 121.924 88.3661Z" fill="#3F3D56"/>
<path d="M126.484 186.281L123.005 186.377C122.477 186.404 121.954 186.258 121.517 185.96C121.139 185.679 120.966 185.299 121.042 184.918L121.726 181.477C121.855 180.828 122.651 180.338 123.617 180.311L125.538 180.258C126.505 180.231 127.326 180.677 127.491 181.318L128.364 184.715C128.461 185.092 128.309 185.481 127.947 185.782C127.527 186.104 127.013 186.279 126.484 186.281Z" fill="#3F3D56"/>
<path d="M128.035 104.827L116.731 105.139L118.861 182.292L130.166 181.979L128.035 104.827Z" fill="#E6E6E6"/>
<path d="M123.512 142.174L123.458 139.392L124.188 139.374L124.241 142.147L124.902 182.551L124.173 182.571" fill="#3F3D56"/>
<path d="M130.261 111.888L114.944 112.311C114.677 110.697 115.022 103.164 116.401 101.48L116.779 99.4691L127.355 99.177L127.909 101.136C129.427 102.429 130.211 109.982 130.261 111.888Z" fill="#E6E6E6"/>
<path d="M127.69 99.4143L116.775 99.7157C116.372 99.7268 116.04 99.5153 116.032 99.2432C116.031 99.204 116.037 99.165 116.049 99.1277L117.745 93.905C117.817 93.6813 118.106 93.5171 118.443 93.5078L125.681 93.3079C126.019 93.2986 126.316 93.4466 126.401 93.6659L128.382 98.7872C128.483 99.0491 128.249 99.3217 127.859 99.396C127.803 99.4066 127.747 99.4127 127.69 99.4143Z" fill="#E6E6E6"/>
<path d="M117.852 141.819C117.753 141.777 117.66 141.723 117.575 141.658C117.452 141.572 117.351 141.459 117.278 141.328C117.206 141.196 117.165 141.05 117.157 140.9L116.761 126.538C116.745 125.944 117.327 125.444 118.058 125.424L127.829 125.154C128.561 125.133 129.17 125.601 129.186 126.195L129.583 140.557C129.584 140.707 129.551 140.855 129.486 140.991C129.421 141.126 129.326 141.244 129.208 141.337C128.947 141.55 128.622 141.668 128.285 141.672L118.515 141.942C118.287 141.949 118.061 141.907 117.852 141.819Z" fill="#3F3D56"/>
<path d="M124.106 98.49L120.79 98.5815C120.151 98.5992 119.61 97.8764 119.585 96.9705C119.56 96.0647 120.06 95.3131 120.7 95.2955L124.015 95.2039C124.655 95.1863 125.196 95.909 125.221 96.8149C125.246 97.7208 124.745 98.4723 124.106 98.49Z" fill="white"/>
<path d="M202.47 183.671H198.611V155.628C201.839 155.396 204.264 154.408 204.264 153.223C204.264 151.867 201.084 150.768 197.16 150.768C193.237 150.768 190.057 151.867 190.057 153.223C190.057 154.419 192.53 155.415 195.804 155.634V183.671H191.945C191.573 183.671 191.216 183.819 190.953 184.082C190.69 184.345 190.542 184.702 190.542 185.074C190.542 185.447 190.69 185.803 190.953 186.067C191.216 186.33 191.573 186.478 191.945 186.478H202.47C202.842 186.478 203.199 186.33 203.462 186.067C203.725 185.803 203.873 185.447 203.873 185.074C203.873 184.702 203.725 184.345 203.462 184.082C203.199 183.819 202.842 183.671 202.47 183.671Z" fill="#E6E6E6"/>
<path d="M194.723 169.434L193.456 170.816L187.525 166.584L189.395 164.545L194.723 169.434Z" fill="#A0616A"/>
<path d="M191.482 173.08C191.494 173.389 191.568 173.692 191.699 173.973C191.829 174.253 192.014 174.504 192.242 174.713L192.298 174.765L193.961 172.953L196.385 170.311L194.595 168.668L194.272 169.021L194.238 169.057L192.628 169.819L192.287 169.981L192.228 170.008L192.1 171.388V171.389C191.89 171.616 191.727 171.882 191.621 172.172C191.515 172.463 191.468 172.771 191.482 173.08Z" fill="#2F2E41"/>
<path d="M201.29 183.214L199.497 183.759L196.541 177.099L199.189 176.295L201.29 183.214Z" fill="#A0616A"/>
<path d="M196.469 186.498L196.491 186.572L202.276 184.814L201.57 182.49L201.113 182.629L201.065 182.643L198.914 182.446L198.851 182.441L198.037 183.563C197.44 183.745 196.94 184.156 196.646 184.706C196.352 185.256 196.288 185.901 196.469 186.498Z" fill="#2F2E41"/>
<path d="M186.498 148.344C186.498 148.344 175.045 159.402 182.286 162.825H184.524C185.01 161.244 185.758 159.755 186.736 158.421C186.947 158.144 187.739 158.201 187.959 157.931C189.302 156.284 190.758 154.87 191.764 154.926L191.524 162.567L191.134 165.292C190.93 166.701 196.699 179.002 196.699 179.002L200.326 177.577C200.326 177.577 196.547 167.445 196.503 165.984L199.531 149.924L186.498 148.344Z" fill="#2F2E41"/>
<path d="M185.543 148.89C185.602 148.973 185.678 149.042 185.767 149.092C185.913 149.174 186.071 149.233 186.235 149.266C188.814 149.851 197.238 151.065 199.424 150.486C199.693 150.416 199.868 150.317 199.925 150.187C200.108 149.777 200.085 148.045 199.977 145.953C199.958 145.561 199.526 145.136 199.5 144.726C199.482 144.419 199.87 144.129 199.849 143.817C199.706 141.701 199.522 139.546 199.398 138.183C199.321 137.307 199.267 136.759 199.267 136.759L200.598 128.372L200.535 128.269L200.465 128.234L196.176 126.111L195.942 125.514C195.875 125.342 195.757 125.195 195.605 125.09C195.452 124.986 195.272 124.93 195.087 124.929L192.262 124.917C192.115 124.916 191.971 124.951 191.84 125.017C191.709 125.083 191.596 125.18 191.511 125.299L190.745 126.359L185.684 129.603L185.703 129.663L188.078 136.89L188.09 137.454V137.455L188.178 141.984L187.933 142.598L188.209 143.605C188.209 143.605 188.082 144.782 187.401 145.657C186.783 146.451 185.996 147.279 185.641 147.951V147.953C185.444 148.324 185.377 148.646 185.543 148.89Z" fill="white"/>
<path d="M181.736 162.168L182.348 162.942C182.348 162.942 187.978 166.881 188.172 167.249L189.061 168.091L191.214 165.789L190.095 164.386C189.199 163.263 188.041 162.377 186.723 161.805L185.007 160.282L181.736 162.168Z" fill="#2F2E41"/>
<path d="M202.016 151.502L200.991 141.578L200.72 137.494L203.59 136.975C203.59 136.975 203.476 139.895 203.852 141.543C204.223 143.169 203.902 151.284 203.879 151.501C204.089 151.69 204.238 151.938 204.305 152.212C204.371 152.487 204.353 152.776 204.252 153.04C204.152 153.304 203.973 153.531 203.74 153.692C203.507 153.852 203.231 153.938 202.949 153.938C202.666 153.938 202.39 153.853 202.157 153.692C201.924 153.532 201.745 153.305 201.644 153.041C201.543 152.777 201.524 152.488 201.591 152.214C201.657 151.939 201.806 151.691 202.016 151.502Z" fill="#A0616A"/>
<path d="M198.599 136.472L199.398 138.183L199.677 138.779L200.429 142.713L200.804 143.112L201.127 144.398L201.279 144.367L204.017 143.8L204.815 143.635C204.995 143.335 205.066 142.983 205.016 142.637C204.966 142.291 204.798 141.973 204.54 141.736C204.486 141.687 204.44 141.639 204.442 141.594C204.487 138.857 204.32 133.859 202.808 131.802C202.327 131.149 202.039 130.499 201.62 130.045C201.619 130.043 201.619 130.042 201.618 130.042L200.598 128.372L200.535 128.269L200.465 128.234L198.599 136.472Z" fill="white"/>
<path d="M193.896 124.214C195.972 124.214 197.655 122.531 197.655 120.455C197.655 118.379 195.972 116.696 193.896 116.696C191.819 116.696 190.136 118.379 190.136 120.455C190.136 122.531 191.819 124.214 193.896 124.214Z" fill="#A0616A"/>
<path d="M198.359 119.646C198.469 119.015 198.555 118.196 198.24 117.468C197.973 116.855 197.307 116.281 196.566 116.358C196.601 116.22 196.597 116.074 196.554 115.938C196.512 115.802 196.432 115.68 196.325 115.586C196.083 115.397 195.802 115.265 195.502 115.2C194.806 114.995 194.084 114.783 193.339 114.779C192.503 114.774 191.762 115.061 191.308 115.566L191.297 115.582L191.161 115.907C191.143 115.951 191.115 115.99 191.08 116.022C191.046 116.054 191.004 116.078 190.959 116.093C190.914 116.108 190.867 116.112 190.819 116.107C190.772 116.101 190.727 116.085 190.687 116.059C190.643 116.032 190.592 116.017 190.541 116.015C190.489 116.014 190.438 116.026 190.392 116.05C190.346 116.074 190.308 116.11 190.28 116.153C190.252 116.197 190.237 116.247 190.234 116.299L190.227 116.438L190.032 116.36C189.983 116.34 189.93 116.334 189.877 116.341C189.825 116.349 189.776 116.371 189.735 116.404C189.694 116.437 189.662 116.48 189.644 116.53C189.625 116.579 189.62 116.632 189.629 116.684L189.655 116.85C189.613 116.842 189.57 116.843 189.528 116.852C189.487 116.862 189.447 116.879 189.413 116.904C189.363 116.941 189.326 116.992 189.308 117.05C189.289 117.109 189.29 117.172 189.309 117.23C189.461 117.662 189.719 118.048 190.061 118.353C190.214 118.491 190.386 118.608 190.571 118.7C190.609 118.719 190.649 118.738 190.691 118.755C192.189 119.397 193.792 119.76 195.42 119.826C195.266 120.12 195.167 120.439 195.127 120.769C195.105 120.955 195.134 121.145 195.212 121.316C195.289 121.487 195.412 121.634 195.568 121.741C195.635 121.779 195.706 121.811 195.779 121.837C195.849 121.863 195.917 121.894 195.981 121.931C196.077 121.989 196.155 122.07 196.208 122.168C196.262 122.265 196.288 122.375 196.286 122.486C196.283 122.597 196.251 122.706 196.193 122.801C196.135 122.895 196.053 122.973 195.955 123.026C195.955 123.026 196.235 123.368 196.28 123.362C196.458 123.321 196.619 123.226 196.74 123.089C197.555 122.299 198.099 121.141 198.359 119.646Z" fill="#2F2E41"/>
<path d="M214.816 177.754L214.98 174.08C216.683 173.17 218.583 172.689 220.514 172.679C217.856 174.852 218.188 179.041 216.386 181.963C215.817 182.87 215.051 183.638 214.145 184.209C213.239 184.78 212.217 185.139 211.153 185.261L208.928 186.623C208.623 184.922 208.691 183.174 209.126 181.501C209.561 179.828 210.353 178.27 211.449 176.932C212.071 176.188 212.784 175.526 213.572 174.96C214.105 176.365 214.816 177.754 214.816 177.754Z" fill="#F2F2F2"/>
<path d="M226 186.798C226 186.834 225.993 186.869 225.979 186.902C225.966 186.935 225.946 186.965 225.92 186.991C225.895 187.016 225.865 187.036 225.832 187.05C225.799 187.063 225.763 187.07 225.728 187.07H76.2724C76.2002 187.07 76.1309 187.042 76.0798 186.99C76.0287 186.939 76 186.87 76 186.798C76 186.726 76.0287 186.656 76.0798 186.605C76.1309 186.554 76.2002 186.525 76.2724 186.525H225.728C225.763 186.525 225.799 186.532 225.832 186.546C225.865 186.56 225.895 186.58 225.92 186.605C225.946 186.63 225.966 186.66 225.979 186.693C225.993 186.727 226 186.762 226 186.798Z" fill="#CCCCCC"/>
<path d="M140.286 159.296C139.891 159.307 139.508 159.16 139.221 158.888C138.934 158.617 138.766 158.242 138.755 157.847L138.638 153.639C138.628 153.244 138.775 152.861 139.046 152.574C139.318 152.287 139.693 152.12 140.088 152.109C140.483 152.098 140.866 152.245 141.153 152.516C141.44 152.787 141.608 153.162 141.619 153.557L141.735 157.765C141.746 158.16 141.599 158.543 141.327 158.83C141.056 159.117 140.681 159.285 140.286 159.296Z" fill="#3F3D56"/>
<path d="M206.038 174.676C203.773 174.676 201.291 174.591 198.591 174.419C184.626 173.533 166.538 170.449 147.657 165.738C128.777 161.027 111.36 155.25 98.6162 149.472C92.4082 146.657 87.6435 143.993 84.4548 141.553C81.0787 138.97 79.602 136.718 80.0654 134.861C80.9684 131.242 88.9639 130.45 95.5124 130.424L95.5146 130.95C86.5219 130.987 81.2166 132.421 80.576 134.988C79.7601 138.258 86.4147 143.362 98.8335 148.993C111.55 154.758 128.934 160.524 147.785 165.228C166.635 169.931 184.691 173.009 198.625 173.894C212.232 174.759 220.505 173.379 221.321 170.109C221.999 167.395 217.533 163.396 208.746 158.849L208.988 158.381C215.373 161.685 222.783 166.424 221.832 170.237C221.368 172.094 219.007 173.388 214.813 174.082C212.422 174.478 209.486 174.676 206.038 174.676Z" fill="#CCCCCC"/>
<path d="M85.833 171.229C84.0358 171.229 82.8674 170.782 82.3502 169.895C81.3304 168.144 83.0384 165.072 87.4266 160.764L87.7953 161.14C83.719 165.141 81.9467 168.156 82.8048 169.63C83.3478 170.562 84.9638 170.896 87.4792 170.595C89.9761 170.297 93.2852 169.409 97.3145 167.954C105.61 164.961 116.017 159.911 126.619 153.735C137.22 147.56 146.747 140.998 153.443 135.259C154.729 134.156 155.897 133.096 156.913 132.106C158.246 130.84 159.476 129.469 160.592 128.006C162.094 125.966 162.601 124.396 162.058 123.464C161.151 121.907 157.342 122.054 151.331 123.877L151.178 123.373C157.627 121.417 161.441 121.359 162.513 123.199C163.179 124.342 162.675 126.065 161.016 128.318C159.883 129.804 158.634 131.197 157.28 132.483C156.256 133.48 155.08 134.548 153.786 135.658C147.066 141.417 137.512 147.999 126.884 154.19C116.255 160.381 105.817 165.445 97.4932 168.449C93.4264 169.917 90.0781 170.815 87.5415 171.118C86.9747 171.188 86.4042 171.225 85.833 171.229Z" fill="#CCCCCC"/>
<path d="M181.876 149.624C180.575 149.598 173.589 149.397 172.444 149.447C172.379 149.22 170.207 152.003 170.155 152.02C170.119 152.057 170.094 152.102 170.08 152.152C170.066 152.201 170.064 152.253 170.074 152.303C170.085 152.353 170.107 152.4 170.14 152.439C170.172 152.479 170.214 152.51 170.261 152.53C170.388 152.608 181.65 152.399 181.787 152.426C181.846 152.425 181.903 152.408 181.953 152.376C182.002 152.343 182.041 152.298 182.066 152.244L182.141 152.076C182.149 151.787 182.244 150.313 182.159 150.061C182.18 150.014 182.188 149.962 182.184 149.911C182.18 149.859 182.163 149.809 182.135 149.766C182.107 149.723 182.069 149.687 182.023 149.662C181.978 149.637 181.927 149.624 181.876 149.624Z" fill="#E6E6E6"/>
<path opacity="0.17" d="M182.142 152.075C182.075 152.234 181.991 152.434 181.787 152.426L170.38 152.555C170.326 152.554 170.273 152.539 170.226 152.512C170.179 152.486 170.14 152.447 170.113 152.401C170.085 152.354 170.07 152.302 170.069 152.248C170.067 152.194 170.08 152.14 170.105 152.093L182.142 152.075Z" fill="black"/>
<path d="M172.497 149.412C172.374 149.2 169.325 134.11 169.07 133.984L166.988 131.437L166.802 131.297C166.543 131.155 165.922 131.251 165.978 131.646C166.468 133.991 169.614 147.348 169.683 149.431L170.061 152.084C170.068 152.129 170.084 152.172 170.109 152.211C170.133 152.249 170.166 152.282 170.204 152.307C170.242 152.333 170.285 152.35 170.33 152.357C170.374 152.365 170.421 152.363 170.465 152.352C170.573 152.34 170.677 152.301 170.766 152.237C170.854 152.173 170.924 152.087 170.97 151.987C170.998 151.894 172.64 149.467 172.497 149.412Z" fill="#E6E6E6"/>
<path opacity="0.17" d="M166.988 131.437L170.97 151.988C170.837 152.325 170.214 152.561 170.068 152.119C170.066 152.118 165.983 131.659 165.979 131.647C165.935 131.154 166.749 131.139 166.988 131.437Z" fill="black"/>
<path d="M167.108 132.277L169.13 135.097L171.4 145.878L170.345 146.798L167.108 132.277Z" fill="white"/>
<path d="M180.57 151.077L181.13 151.1C181.138 150.936 181.165 150.774 181.21 150.616C181.294 150.216 181.37 149.741 181.021 149.743C180.784 149.72 180.703 150.02 180.661 150.346C180.65 150.592 180.62 150.836 180.57 151.077Z" fill="#2F2E41"/>
<path d="M177.36 150.325L177.737 150.339L177.92 150.346C177.916 150.146 178.009 149.734 177.783 149.632C177.747 149.617 177.708 149.609 177.669 149.609C177.457 149.597 177.393 149.758 177.374 149.944C177.362 150.057 177.367 150.176 177.364 150.269C177.364 150.288 177.362 150.307 177.36 150.325Z" fill="#2F2E41"/>
<path d="M176.243 150.279L176.622 150.295L176.802 150.302C176.799 150.072 176.92 149.571 176.552 149.564C176.211 149.544 176.255 149.978 176.246 150.223C176.246 150.242 176.245 150.262 176.243 150.279Z" fill="#2F2E41"/>
<path d="M175.125 150.235L175.503 150.249L175.685 150.256C175.682 150.028 175.803 149.527 175.434 149.52C175.094 149.499 175.138 149.932 175.129 150.179C175.129 150.199 175.127 150.218 175.125 150.235Z" fill="#2F2E41"/>
<path d="M174.008 150.19L174.387 150.206L174.568 150.213C174.564 149.983 174.685 149.483 174.317 149.474C173.977 149.455 174.02 149.888 174.012 150.134C174.012 150.153 174.01 150.172 174.008 150.19Z" fill="#2F2E41"/>
<path d="M172.891 150.146L173.268 150.16L173.45 150.167C173.447 149.957 173.549 149.516 173.279 149.441H173.277C173.252 149.433 173.226 149.43 173.2 149.43C173.168 149.428 173.136 149.43 173.105 149.439H173.103C172.868 149.501 172.901 149.869 172.894 150.09C172.894 150.109 172.893 150.128 172.891 150.146Z" fill="#2F2E41"/>
<path d="M179.442 150.027L180.002 150.05C180.002 150.029 180.002 150.006 180.004 149.979C180.017 149.846 180.02 149.712 180.011 149.578C179.991 149.43 179.928 149.315 179.751 149.311C179.57 149.301 179.498 149.416 179.47 149.565C179.464 149.591 179.459 149.617 179.456 149.643V149.644C179.442 149.781 179.451 149.929 179.442 150.027Z" fill="#2F2E41"/>
<path d="M178.325 149.981L178.884 150.004C178.896 149.853 178.9 149.702 178.895 149.551C178.879 149.397 178.818 149.271 178.634 149.267C178.448 149.255 178.376 149.381 178.348 149.537C178.321 149.688 178.335 149.869 178.325 149.981Z" fill="#2F2E41"/>
<path d="M177.208 149.937L177.374 149.944L177.767 149.96C177.765 149.876 177.781 149.753 177.783 149.632C177.784 149.596 177.783 149.559 177.779 149.523C177.765 149.36 177.707 149.225 177.516 149.222C177.322 149.211 177.253 149.346 177.229 149.511C177.204 149.658 177.218 149.829 177.208 149.937Z" fill="#2F2E41"/>
<path d="M179.453 151.034L180.012 151.055C180.011 150.827 180.13 150.325 179.761 150.318C179.393 150.295 179.474 150.804 179.453 151.034Z" fill="#2F2E41"/>
<path d="M178.335 150.988L178.895 151.011C178.893 150.781 179.013 150.279 178.644 150.272C178.276 150.251 178.356 150.76 178.335 150.988Z" fill="#2F2E41"/>
<path d="M177.218 150.944L177.778 150.965C177.776 150.802 177.837 150.5 177.737 150.339C177.716 150.303 177.684 150.274 177.647 150.255C177.61 150.235 177.569 150.226 177.527 150.228C177.469 150.222 177.412 150.237 177.364 150.269C177.185 150.386 177.236 150.758 177.218 150.944Z" fill="#2F2E41"/>
<path d="M176.101 150.899L176.66 150.921C176.659 150.758 176.718 150.458 176.622 150.295C176.6 150.259 176.569 150.229 176.531 150.209C176.494 150.19 176.452 150.18 176.409 150.183C176.352 150.177 176.294 150.191 176.246 150.223C176.067 150.344 176.118 150.714 176.101 150.899Z" fill="#2F2E41"/>
<path d="M174.983 150.855L175.543 150.876C175.541 150.713 175.603 150.411 175.503 150.249C175.481 150.214 175.45 150.185 175.413 150.165C175.376 150.146 175.334 150.137 175.292 150.139C175.235 150.133 175.177 150.147 175.129 150.179C174.95 150.297 175.001 150.669 174.983 150.855Z" fill="#2F2E41"/>
<path d="M173.866 150.809L174.426 150.832C174.424 150.669 174.484 150.369 174.387 150.206C174.365 150.169 174.334 150.139 174.297 150.12C174.259 150.1 174.217 150.091 174.175 150.093C174.117 150.087 174.06 150.101 174.012 150.134C173.833 150.255 173.884 150.625 173.866 150.809Z" fill="#2F2E41"/>
<path d="M172.749 150.765L173.308 150.786C173.307 150.623 173.366 150.323 173.268 150.16C173.246 150.124 173.215 150.095 173.178 150.075C173.141 150.056 173.099 150.047 173.057 150.05C173 150.044 172.942 150.058 172.894 150.09C172.715 150.209 172.766 150.579 172.749 150.765Z" fill="#2F2E41"/>
<path d="M179.068 149.144L183.333 140.124L184.945 136.362L182.411 134.919C182.411 134.919 181.548 137.711 180.646 139.14C179.755 140.551 177.362 148.312 177.312 148.524C177.05 148.632 176.828 148.816 176.674 149.053C176.519 149.29 176.441 149.568 176.448 149.851C176.455 150.134 176.548 150.407 176.714 150.636C176.881 150.865 177.113 151.038 177.379 151.132C177.646 151.226 177.935 151.237 178.208 151.163C178.481 151.089 178.725 150.934 178.908 150.719C179.091 150.503 179.204 150.238 179.233 149.956C179.261 149.675 179.204 149.392 179.068 149.144Z" fill="#A0616A"/>
<path d="M179.042 140.793L182.267 142.739L182.999 141.633L183.486 141.382L185.502 137.92L187.285 136.104L189.64 128.576L186.575 129.035L186.571 129.037C186.026 129.326 185.537 129.844 184.868 130.3C182.758 131.738 180.939 136.396 180.073 138.993C180.059 139.036 180 139.065 179.933 139.094C179.611 139.232 179.347 139.476 179.185 139.785C179.023 140.095 178.972 140.451 179.042 140.793Z" fill="white"/>
</g>
<defs>
<clipPath id="clip0_28_559">
<rect width="150" height="102.07" fill="white" transform="translate(76 85)"/>
</clipPath>
</defs>
</svg>
